<svg xmlns="http://www.w3.org/2000/svg" version="1.1" xmlns:xlink="http://www.w3.org/1999/xlink" xmlns:svgjs="http://svgjs.dev/svgjs" width="300" height="300" viewBox="0 0 300 300"><rect width="300" height="300" fill="#000000"></rect><g transform="matrix(1,0,0,1,-0.18169044143283486,65.8226763821643)"><svg viewBox="0 0 396 223" data-background-color="#162836" preserveAspectRatio="xMidYMid meet" height="168" width="300" xmlns="http://www.w3.org/2000/svg" xmlns:xlink="http://www.w3.org/1999/xlink"><g id="tight-bounds" transform="matrix(1,0,0,1,0.24008861730862918,0.23546000943861145)"><svg viewBox="0 0 395.52 222.52916399783896" height="222.52916399783896" width="395.52"><g><svg viewBox="0 0 395.52 222.52916399783896" height="222.52916399783896" width="395.52"><g><svg viewBox="0 0 395.52 222.52916399783896" height="222.52916399783896" width="395.52"><g id="textblocktransform"><svg viewBox="0 0 395.52 222.52916399783896" height="222.52916399783896" width="395.52" id="textblock"><g><svg viewBox="0 0 395.52 222.52916399783896" height="222.52916399783896" width="395.52"><path d="M394.594 47.728C392.735 24.63 387.435 18.208 387.435 18.208 371.165-5.583 350.86-0.455 332.619 2.963 300.414 3.102 268.339 8.184 236.208 10.909 168.767 11.325 100.749 4.488 33.643 21.35 27.339 26.524-6.54 22.366 1.121 50.685 3.129 62.465 10.456 75.539 10.232 86.349 11.236 88.243 12.631 83.9 13.226 86.626 15.309 93.971 18.711 90.507 21.501 94.849 17.614 106.445 20.403 116.1 23.062 126.217 18.377 128.85 12.371 127.603 9.675 136.334 9.396 142.663 7.89 141.462 6.235 141.185 5.026 141 2.59 141.693 2.999 143.679 4.394 150.47-1.594 154.397 2.162 161.049-0.422 168.256 3.948 174.493 3.353 182.3 3.278 183.871 3.687 185.21 4.338 185.58 7.22 187.566 3.018 191.447 3.464 195.651 33.029 224.385 65.104 204.521 95.394 217.733 103.259 208.493 97.346 221.013 100.489 219.073 102.943 216.809 104.728 226.187 107.499 220.874 107.927 219.35 107.276 215.746 108.8 216.439 109.6 216.809 110.307 216.717 110.418 214.591 110.586 211.404 109.117 213.39 108.726 211.727 112.947 203.319 111.906 223.323 115.866 222.491 115.68 220.043 114.528 216.532 116.889 216.994 119.232 213.483 119.306 210.572 121.389 218.472 121.463 220.181 121.835 221.382 122.43 222.214 128.938 213.621 135.409 225.263 142.233 221.382 146.417 217.132 150.433 223.692 154.672 222.075 156.16 220.782 157.666 218.472 159.098 222.353 176.632 223.184 195.319 219.719 211.943 222.491 256.364 217.317 303.836 224.616 350.674 217.779 361.719 215.146 373.192 211.404 383.958 208.401 383.958 208.401 392.679 200.178 392.679 163.22S394.538 130.883 394.817 101.455C395.096 72.028 396.398 70.827 394.538 47.728Z" opacity="1" fill="#cf7650" data-fill-palette-color="tertiary"></path><g transform="matrix(1,0,0,1,55.76832,26.230666666666668)"><svg width="283.98335999999995" viewBox="5 -36.6 61.7 36.95" height="170.06783066450564" data-palette-color="#162836"><path d="M7.3 0.35L7.3 0.35Q6.05 0.35 5 0L5 0 5-36.1 16.95-36.1Q20.3-36.1 23.18-35.08 26.05-34.05 27.83-31.75 29.6-29.45 29.6-25.7L29.6-25.7Q29.6-22.8 28.45-20.73 27.3-18.65 25.5-17.32 23.7-16 21.65-15.25L21.65-15.25 30.6-2.7Q30.2-1.65 29.18-0.8 28.15 0.05 26.95 0.3L26.95 0.3 16.65-14.15Q16.1-14.1 15.6-14.1L15.6-14.1 9.65-14.1 9.65 0Q8.45 0.35 7.3 0.35ZM17.35-31.8L17.35-31.8 9.65-31.8 9.65-18.4 15.6-18.4Q17.15-18.4 18.78-18.73 20.4-19.05 21.75-19.83 23.1-20.6 23.95-22 24.8-23.4 24.8-25.55L24.8-25.55Q24.8-28.6 22.7-30.2 20.6-31.8 17.35-31.8ZM48.95 0L48.95 0 35-35.05Q36.9-36.35 39.3-36.6L39.3-36.6 51.05-7.1 62.45-36.6Q63.65-36.55 64.85-36.1 66.05-35.65 66.7-35.05L66.7-35.05 53.1 0Q52.7 0.15 52.22 0.25 51.75 0.35 51.05 0.35L51.05 0.35Q50.35 0.35 49.85 0.25 49.35 0.15 48.95 0Z" opacity="1" transform="matrix(1,0,0,1,0,0)" fill="#162836" class="wordmark-text-0" data-fill-palette-color="quaternary" id="text-0"></path></svg></g></svg></g></svg></g></svg></g><g></g></svg></g><defs></defs></svg><rect width="395.52" height="222.52916399783896" fill="none" stroke="none" visibility="hidden"></rect></g></svg></g></svg>